<?xml version="1.0" encoding="utf-8" standalone="no"?>
<!DOCTYPE svg PUBLIC "-//W3C//DTD SVG 1.1//EN"
  "http://www.w3.org/Graphics/SVG/1.1/DTD/svg11.dtd">
<!-- Created with matplotlib (https://matplotlib.org/) -->
<svg height="432pt" version="1.1" viewBox="0 0 720 432" width="720pt" xmlns="http://www.w3.org/2000/svg" xmlns:xlink="http://www.w3.org/1999/xlink">
 <defs>
  <style type="text/css">
*{stroke-linecap:butt;stroke-linejoin:round;}
  </style>
 </defs>
 <g id="figure_1">
  <g id="patch_1">
   <path d="M 0 432 
L 720 432 
L 720 0 
L 0 0 
z
" style="fill:#ffffff;"/>
  </g>
  <g id="axes_1">
   <g id="patch_2">
    <path d="M 90 378 
L 648 378 
L 648 51.84 
L 90 51.84 
z
" style="fill:#ffffff;"/>
   </g>
   <g id="PolyCollection_1">
    <path clip-path="url(#p90783bf11d)" d="M 90 300.095795 
L 90 334.995226 
L 117.9 334.995226 
L 145.8 334.995226 
L 173.7 297.180179 
L 201.6 297.180179 
L 229.5 297.180179 
L 257.4 297.180179 
L 285.3 297.180179 
L 313.2 297.180179 
L 341.1 297.180179 
L 369 297.180179 
L 396.9 161.766468 
L 424.8 161.766468 
L 452.7 161.772078 
L 480.6 161.772078 
L 508.5 161.772078 
L 536.4 161.772078 
L 564.3 161.772078 
L 592.2 161.772078 
L 620.1 161.772078 
L 648 161.772078 
L 675.9 161.772078 
L 703.8 161.772078 
L 731.7 161.772078 
L 759.6 161.772078 
L 787.5 161.772078 
L 815.4 161.772078 
L 843.3 161.772078 
L 871.2 161.772078 
L 899.1 161.772078 
L 927 161.772078 
L 954.9 161.772078 
L 982.8 161.772078 
L 1010.7 161.772078 
L 1038.6 161.772078 
L 1066.5 161.772078 
L 1094.4 161.772078 
L 1122.3 161.772078 
L 1150.2 161.772078 
L 1178.1 161.772078 
L 1206 161.772078 
L 1233.9 161.772078 
L 1261.8 161.772078 
L 1289.7 161.772078 
L 1317.6 161.772078 
L 1345.5 161.772078 
L 1373.4 161.772078 
L 1401.3 161.772078 
L 1429.2 161.772078 
L 1457.1 161.772078 
L 1485 161.772078 
L 1485 138.765442 
L 1485 138.765442 
L 1457.1 138.765442 
L 1429.2 138.765442 
L 1401.3 138.765442 
L 1373.4 138.765442 
L 1345.5 138.765442 
L 1317.6 138.765442 
L 1289.7 138.765442 
L 1261.8 138.765442 
L 1233.9 138.765442 
L 1206 138.765442 
L 1178.1 138.765442 
L 1150.2 138.765442 
L 1122.3 138.765442 
L 1094.4 138.765442 
L 1066.5 138.765442 
L 1038.6 138.765442 
L 1010.7 138.765442 
L 982.8 138.765442 
L 954.9 138.765442 
L 927 138.765442 
L 899.1 138.765442 
L 871.2 138.765442 
L 843.3 138.765442 
L 815.4 138.765442 
L 787.5 138.765442 
L 759.6 138.765442 
L 731.7 138.765442 
L 703.8 138.765442 
L 675.9 138.765442 
L 648 138.765442 
L 620.1 138.765442 
L 592.2 138.765442 
L 564.3 138.765442 
L 536.4 138.765442 
L 508.5 138.765442 
L 480.6 138.765442 
L 452.7 138.765442 
L 424.8 138.78221 
L 396.9 138.78221 
L 369 266.807308 
L 341.1 266.807308 
L 313.2 266.807308 
L 285.3 266.807308 
L 257.4 266.807308 
L 229.5 266.807308 
L 201.6 266.807308 
L 173.7 266.807308 
L 145.8 300.095795 
L 117.9 300.095795 
L 90 300.095795 
z
" style="fill:#d62728;fill-opacity:0.25;stroke:#d62728;stroke-opacity:0.25;"/>
   </g>
   <g id="PolyCollection_2">
    <path clip-path="url(#p90783bf11d)" d="M 90 136.087181 
L 90 169.389272 
L 117.9 169.389272 
L 145.8 169.389272 
L 173.7 169.389272 
L 201.6 169.389272 
L 229.5 169.389272 
L 257.4 165.700026 
L 285.3 165.700026 
L 313.2 165.700026 
L 341.1 165.700026 
L 369 165.700026 
L 396.9 165.700026 
L 424.8 165.700026 
L 452.7 165.412088 
L 480.6 165.412088 
L 508.5 165.412088 
L 536.4 165.412088 
L 564.3 165.412088 
L 592.2 165.412088 
L 620.1 165.412088 
L 648 165.412088 
L 675.9 165.412088 
L 703.8 165.412088 
L 731.7 165.412088 
L 759.6 165.412088 
L 787.5 165.412088 
L 815.4 165.412088 
L 843.3 165.412088 
L 871.2 165.412088 
L 899.1 165.412088 
L 927 165.412088 
L 954.9 165.412088 
L 982.8 165.412088 
L 1010.7 165.412088 
L 1038.6 165.412088 
L 1066.5 165.412088 
L 1094.4 165.412088 
L 1122.3 165.412088 
L 1150.2 165.412088 
L 1178.1 165.412088 
L 1206 165.412088 
L 1233.9 165.412088 
L 1261.8 165.412088 
L 1289.7 165.412088 
L 1317.6 165.412088 
L 1345.5 165.412088 
L 1373.4 165.412088 
L 1401.3 165.412088 
L 1429.2 165.412088 
L 1457.1 165.412088 
L 1485 165.412088 
L 1485 135.22344 
L 1485 135.22344 
L 1457.1 135.22344 
L 1429.2 135.22344 
L 1401.3 135.22344 
L 1373.4 135.22344 
L 1345.5 135.22344 
L 1317.6 135.22344 
L 1289.7 135.22344 
L 1261.8 135.22344 
L 1233.9 135.22344 
L 1206 135.22344 
L 1178.1 135.22344 
L 1150.2 135.22344 
L 1122.3 135.22344 
L 1094.4 135.22344 
L 1066.5 135.22344 
L 1038.6 135.22344 
L 1010.7 135.22344 
L 982.8 135.22344 
L 954.9 135.22344 
L 927 135.22344 
L 899.1 135.22344 
L 871.2 135.22344 
L 843.3 135.22344 
L 815.4 135.22344 
L 787.5 135.22344 
L 759.6 135.22344 
L 731.7 135.22344 
L 703.8 135.22344 
L 675.9 135.22344 
L 648 135.22344 
L 620.1 135.22344 
L 592.2 135.22344 
L 564.3 135.22344 
L 536.4 135.22344 
L 508.5 135.22344 
L 480.6 135.22344 
L 452.7 135.22344 
L 424.8 135.89718 
L 396.9 135.89718 
L 369 135.89718 
L 341.1 135.89718 
L 313.2 135.89718 
L 285.3 135.89718 
L 257.4 135.89718 
L 229.5 136.087181 
L 201.6 136.087181 
L 173.7 136.087181 
L 145.8 136.087181 
L 117.9 136.087181 
L 90 136.087181 
z
" style="fill:#1f77b4;fill-opacity:0.25;stroke:#1f77b4;stroke-opacity:0.25;"/>
   </g>
   <g id="PolyCollection_3">
    <path clip-path="url(#p90783bf11d)" d="M 90 104.596417 
L 90 113.854079 
L 117.9 113.854079 
L 145.8 113.854079 
L 173.7 113.854079 
L 201.6 113.854079 
L 229.5 113.854079 
L 257.4 111.564487 
L 285.3 111.564487 
L 313.2 111.564487 
L 341.1 111.564487 
L 369 111.564487 
L 396.9 111.564487 
L 424.8 111.564487 
L 452.7 111.564487 
L 480.6 111.564487 
L 508.5 111.564487 
L 536.4 111.564487 
L 564.3 111.564487 
L 592.2 111.564487 
L 620.1 111.564487 
L 648 111.564487 
L 675.9 111.564487 
L 703.8 111.564487 
L 731.7 111.564487 
L 759.6 111.564487 
L 787.5 111.564487 
L 815.4 111.564487 
L 843.3 111.564487 
L 871.2 111.564487 
L 899.1 111.564487 
L 927 111.564487 
L 954.9 111.564487 
L 982.8 111.564487 
L 1010.7 111.564487 
L 1038.6 111.564487 
L 1066.5 111.564487 
L 1094.4 111.564487 
L 1122.3 111.564487 
L 1150.2 111.564487 
L 1178.1 111.564487 
L 1206 111.564487 
L 1233.9 111.564487 
L 1261.8 111.564487 
L 1289.7 111.564487 
L 1317.6 111.564487 
L 1345.5 111.564487 
L 1373.4 111.564487 
L 1401.3 111.564487 
L 1429.2 111.564487 
L 1457.1 109.97536 
L 1485 109.97536 
L 1485 99.731433 
L 1485 99.731433 
L 1457.1 99.731433 
L 1429.2 98.920411 
L 1401.3 98.920411 
L 1373.4 98.920411 
L 1345.5 98.920411 
L 1317.6 98.920411 
L 1289.7 98.920411 
L 1261.8 98.920411 
L 1233.9 98.920411 
L 1206 98.920411 
L 1178.1 98.920411 
L 1150.2 98.920411 
L 1122.3 98.920411 
L 1094.4 98.920411 
L 1066.5 98.920411 
L 1038.6 98.920411 
L 1010.7 98.920411 
L 982.8 98.920411 
L 954.9 98.920411 
L 927 98.920411 
L 899.1 98.920411 
L 871.2 98.920411 
L 843.3 98.920411 
L 815.4 98.920411 
L 787.5 98.920411 
L 759.6 98.920411 
L 731.7 98.920411 
L 703.8 98.920411 
L 675.9 98.920411 
L 648 98.920411 
L 620.1 98.920411 
L 592.2 98.920411 
L 564.3 98.920411 
L 536.4 98.920411 
L 508.5 98.920411 
L 480.6 98.920411 
L 452.7 98.920411 
L 424.8 98.920411 
L 396.9 98.920411 
L 369 98.920411 
L 341.1 98.920411 
L 313.2 98.920411 
L 285.3 98.920411 
L 257.4 98.920411 
L 229.5 104.596417 
L 201.6 104.596417 
L 173.7 104.596417 
L 145.8 104.596417 
L 117.9 104.596417 
L 90 104.596417 
z
" style="fill:#2ca02c;fill-opacity:0.25;stroke:#2ca02c;stroke-opacity:0.25;"/>
   </g>
   <g id="PolyCollection_4">
    <path clip-path="url(#p90783bf11d)" d="M 90 293.505074 
L 90 326.129965 
L 117.9 326.129965 
L 145.8 326.129965 
L 173.7 144.632456 
L 201.6 144.632456 
L 229.5 144.632456 
L 257.4 144.632456 
L 285.3 144.632456 
L 313.2 144.632456 
L 341.1 144.632456 
L 369 121.102391 
L 396.9 121.102391 
L 424.8 121.102391 
L 452.7 121.102391 
L 480.6 121.102391 
L 508.5 121.102391 
L 536.4 121.102391 
L 564.3 121.102391 
L 592.2 122.087974 
L 620.1 122.087974 
L 648 122.087974 
L 675.9 122.087974 
L 703.8 122.087974 
L 731.7 122.087974 
L 759.6 122.087974 
L 787.5 122.087974 
L 815.4 122.087974 
L 843.3 122.087974 
L 871.2 122.087974 
L 899.1 122.087974 
L 927 122.087974 
L 954.9 122.087974 
L 982.8 119.239168 
L 1010.7 119.239168 
L 1038.6 119.239168 
L 1066.5 119.239168 
L 1094.4 119.239168 
L 1122.3 119.239168 
L 1150.2 119.239168 
L 1178.1 119.239168 
L 1206 119.239168 
L 1233.9 119.239168 
L 1261.8 119.239168 
L 1289.7 119.239168 
L 1317.6 119.239168 
L 1345.5 119.239168 
L 1373.4 119.239168 
L 1401.3 119.239168 
L 1429.2 119.239168 
L 1457.1 118.252003 
L 1485 118.252003 
L 1485 102.475633 
L 1485 102.475633 
L 1457.1 102.475633 
L 1429.2 103.769254 
L 1401.3 103.769254 
L 1373.4 103.769254 
L 1345.5 103.769254 
L 1317.6 103.769254 
L 1289.7 103.769254 
L 1261.8 103.769254 
L 1233.9 103.769254 
L 1206 103.769254 
L 1178.1 103.769254 
L 1150.2 103.769254 
L 1122.3 103.769254 
L 1094.4 103.769254 
L 1066.5 103.769254 
L 1038.6 103.769254 
L 1010.7 103.769254 
L 982.8 103.769254 
L 954.9 102.551124 
L 927 102.551124 
L 899.1 102.551124 
L 871.2 102.551124 
L 843.3 102.551124 
L 815.4 102.551124 
L 787.5 102.551124 
L 759.6 102.551124 
L 731.7 102.551124 
L 703.8 102.551124 
L 675.9 102.551124 
L 648 102.551124 
L 620.1 102.551124 
L 592.2 102.551124 
L 564.3 103.974514 
L 536.4 103.974514 
L 508.5 103.974514 
L 480.6 103.974514 
L 452.7 103.974514 
L 424.8 103.974514 
L 396.9 103.974514 
L 369 103.974514 
L 341.1 114.375687 
L 313.2 114.375687 
L 285.3 114.375687 
L 257.4 114.375687 
L 229.5 114.375687 
L 201.6 114.375687 
L 173.7 114.375687 
L 145.8 293.505074 
L 117.9 293.505074 
L 90 293.505074 
z
" style="fill:#9467bd;fill-opacity:0.25;stroke:#9467bd;stroke-opacity:0.25;"/>
   </g>
   <g id="matplotlib.axis_1">
    <g id="xtick_1">
     <g id="line2d_1">
      <defs>
       <path d="M 0 0 
L 0 3.5 
" id="ma0047b5313" style="stroke:#000000;stroke-width:0.8;"/>
      </defs>
      <g>
       <use style="stroke:#000000;stroke-width:0.8;" x="90" xlink:href="#ma0047b5313" y="378"/>
      </g>
     </g>
     <g id="text_1">
      <!-- $\mathdefault{0.0}$ -->
      <defs>
       <path d="M 42 31.84375 
C 42 37.96875 41.90625 48.421875 37.703125 56.453125 
C 34 63.484375 28.09375 66 22.90625 66 
C 18.09375 66 12 63.78125 8.203125 56.5625 
C 4.203125 49.015625 3.796875 39.671875 3.796875 31.84375 
C 3.796875 26.109375 3.90625 17.375 7 9.734375 
C 11.296875 -0.609375 19 -2 22.90625 -2 
C 27.5 -2 34.5 -0.109375 38.59375 9.4375 
C 41.59375 16.375 42 24.5 42 31.84375 
z
M 22.90625 -0.40625 
C 16.5 -0.40625 12.703125 5.125 11.296875 12.75 
C 10.203125 18.6875 10.203125 27.328125 10.203125 32.953125 
C 10.203125 40.6875 10.203125 47.109375 11.5 53.234375 
C 13.40625 61.78125 19 64.390625 22.90625 64.390625 
C 27 64.390625 32.296875 61.671875 34.203125 53.4375 
C 35.5 47.71875 35.59375 40.984375 35.59375 32.953125 
C 35.59375 26.421875 35.59375 18.375 34.40625 12.453125 
C 32.296875 1.5 26.40625 -0.40625 22.90625 -0.40625 
z
" id="CMR17-48"/>
       <path d="M 18.40625 4.796875 
C 18.40625 7.6875 16 9.6875 13.59375 9.6875 
C 10.703125 9.6875 8.703125 7.296875 8.703125 4.890625 
C 8.703125 2 11.09375 0 13.5 0 
C 16.40625 0 18.40625 2.390625 18.40625 4.796875 
z
" id="CMMI12-58"/>
      </defs>
      <g transform="translate(78.152187 398.836997)scale(0.2 -0.2)">
       <use transform="scale(0.996264)" xlink:href="#CMR17-48"/>
       <use transform="translate(45.690477 0)scale(0.996264)" xlink:href="#CMMI12-58"/>
       <use transform="translate(72.787654 0)scale(0.996264)" xlink:href="#CMR17-48"/>
      </g>
     </g>
    </g>
    <g id="xtick_2">
     <g id="line2d_2">
      <g>
       <use style="stroke:#000000;stroke-width:0.8;" x="159.75" xlink:href="#ma0047b5313" y="378"/>
      </g>
     </g>
     <g id="text_2">
      <!-- $\mathdefault{2.5}$ -->
      <defs>
       <path d="M 41.703125 15.46875 
L 39.90625 15.46875 
C 38.90625 8.390625 38.09375 7.1875 37.703125 6.59375 
C 37.203125 5.796875 30 5.796875 28.59375 5.796875 
L 9.40625 5.796875 
C 13 9.6875 20 16.765625 28.5 24.9375 
C 34.59375 30.71875 41.703125 37.5 41.703125 47.390625 
C 41.703125 59.1875 32.296875 66 21.796875 66 
C 10.796875 66 4.09375 56.296875 4.09375 47.296875 
C 4.09375 43.390625 7 42.890625 8.203125 42.890625 
C 9.203125 42.890625 12.203125 43.484375 12.203125 46.984375 
C 12.203125 50.09375 9.59375 51 8.203125 51 
C 7.59375 51 7 50.890625 6.59375 50.6875 
C 8.5 59.1875 14.296875 63.390625 20.40625 63.390625 
C 29.09375 63.390625 34.796875 56.5 34.796875 47.390625 
C 34.796875 38.703125 29.703125 31.21875 24 24.734375 
L 4.09375 2.296875 
L 4.09375 0 
L 39.296875 0 
z
" id="CMR17-50"/>
       <path d="M 11.40625 58.59375 
C 12.40625 58.1875 16.5 56.890625 20.703125 56.890625 
C 30 56.890625 35.09375 61.890625 38 64.6875 
C 38 65.484375 38 66 37.40625 66 
C 37.296875 66 37.09375 66 36.296875 65.59375 
C 32.796875 64.09375 28.703125 63 23.703125 63 
C 20.703125 63 16.203125 63.359375 11.296875 65.484375 
C 10.203125 66 10 66 9.90625 66 
C 9.40625 66 9.296875 65.890625 9.296875 63.90625 
L 9.296875 34.859375 
C 9.296875 33.015625 9.296875 32.5 10.296875 32.5 
C 10.796875 32.5 11 32.703125 11.5 33.421875 
C 14.703125 38.046875 19.09375 40 24.09375 40 
C 27.59375 40 35.09375 37.734375 35.09375 20.203125 
C 35.09375 16.984375 35.09375 11.1875 32.09375 6.59375 
C 29.59375 2.484375 25.703125 0.390625 21.40625 0.390625 
C 14.796875 0.390625 8.09375 4.984375 6.296875 12.6875 
C 6.703125 12.59375 7.5 12.390625 7.90625 12.390625 
C 9.203125 12.390625 11.703125 13.09375 11.703125 16.1875 
C 11.703125 18.890625 9.796875 20 7.90625 20 
C 5.59375 20 4.09375 18.59375 4.09375 15.796875 
C 4.09375 7.09375 11 -2 21.59375 -2 
C 31.90625 -2 41.703125 6.890625 41.703125 19.796875 
C 41.703125 32.09375 33.90625 41.59375 24.203125 41.59375 
C 19.09375 41.59375 14.796875 39.6875 11.40625 36 
z
" id="CMR17-53"/>
      </defs>
      <g transform="translate(147.902187 398.836997)scale(0.2 -0.2)">
       <use transform="scale(0.996264)" xlink:href="#CMR17-50"/>
       <use transform="translate(45.690477 0)scale(0.996264)" xlink:href="#CMMI12-58"/>
       <use transform="translate(72.787654 0)scale(0.996264)" xlink:href="#CMR17-53"/>
      </g>
     </g>
    </g>
    <g id="xtick_3">
     <g id="line2d_3">
      <g>
       <use style="stroke:#000000;stroke-width:0.8;" x="229.5" xlink:href="#ma0047b5313" y="378"/>
      </g>
     </g>
     <g id="text_3">
      <!-- $\mathdefault{5.0}$ -->
      <g transform="translate(217.652187 398.836997)scale(0.2 -0.2)">
       <use transform="scale(0.996264)" xlink:href="#CMR17-53"/>
       <use transform="translate(45.690477 0)scale(0.996264)" xlink:href="#CMMI12-58"/>
       <use transform="translate(72.787654 0)scale(0.996264)" xlink:href="#CMR17-48"/>
      </g>
     </g>
    </g>
    <g id="xtick_4">
     <g id="line2d_4">
      <g>
       <use style="stroke:#000000;stroke-width:0.8;" x="299.25" xlink:href="#ma0047b5313" y="378"/>
      </g>
     </g>
     <g id="text_4">
      <!-- $\mathdefault{7.5}$ -->
      <defs>
       <path d="M 45.09375 61.796875 
L 45.09375 64 
L 21.59375 64 
C 9.90625 64 9.703125 65.09375 9.296875 67 
L 7.5 67 
L 4.59375 48.5 
L 6.40625 48.5 
C 6.703125 50.40625 7.40625 55.5 8.59375 57.390625 
C 9.203125 58.1875 16.59375 58.1875 18.296875 58.1875 
L 40.296875 58.1875 
L 29.203125 41.71875 
C 21.796875 30.640625 16.703125 15.671875 16.703125 2.59375 
C 16.703125 1.390625 16.703125 -2 20.296875 -2 
C 23.90625 -2 23.90625 1.390625 23.90625 2.6875 
L 23.90625 7.28125 
C 23.90625 23.65625 26.703125 34.4375 31.296875 41.3125 
z
" id="CMR17-55"/>
      </defs>
      <g transform="translate(287.402187 398.836997)scale(0.2 -0.2)">
       <use transform="scale(0.996264)" xlink:href="#CMR17-55"/>
       <use transform="translate(45.690477 0)scale(0.996264)" xlink:href="#CMMI12-58"/>
       <use transform="translate(72.787654 0)scale(0.996264)" xlink:href="#CMR17-53"/>
      </g>
     </g>
    </g>
    <g id="xtick_5">
     <g id="line2d_5">
      <g>
       <use style="stroke:#000000;stroke-width:0.8;" x="369" xlink:href="#ma0047b5313" y="378"/>
      </g>
     </g>
     <g id="text_5">
      <!-- $\mathdefault{10.0}$ -->
      <defs>
       <path d="M 26.59375 63.796875 
C 26.59375 65.890625 26.5 66 25.09375 66 
C 21.203125 61.359375 15.296875 59.890625 9.703125 59.6875 
C 9.40625 59.6875 8.90625 59.6875 8.796875 59.5 
C 8.703125 59.296875 8.703125 59.09375 8.703125 57 
C 11.796875 57 17 57.59375 21 59.984375 
L 21 7.296875 
C 21 3.796875 20.796875 2.59375 12.203125 2.59375 
L 9.203125 2.59375 
L 9.203125 0 
C 14 0.09375 19 0.1875 23.796875 0.1875 
C 28.59375 0.1875 33.59375 0.09375 38.40625 0 
L 38.40625 2.59375 
L 35.40625 2.59375 
C 26.796875 2.59375 26.59375 3.6875 26.59375 7.296875 
z
" id="CMR17-49"/>
      </defs>
      <g transform="translate(352.583139 398.836997)scale(0.2 -0.2)">
       <use transform="scale(0.996264)" xlink:href="#CMR17-49"/>
       <use transform="translate(45.690477 0)scale(0.996264)" xlink:href="#CMR17-48"/>
       <use transform="translate(91.380954 0)scale(0.996264)" xlink:href="#CMMI12-58"/>
       <use transform="translate(118.478131 0)scale(0.996264)" xlink:href="#CMR17-48"/>
      </g>
     </g>
    </g>
    <g id="xtick_6">
     <g id="line2d_6">
      <g>
       <use style="stroke:#000000;stroke-width:0.8;" x="438.75" xlink:href="#ma0047b5313" y="378"/>
      </g>
     </g>
     <g id="text_6">
      <!-- $\mathdefault{12.5}$ -->
      <g transform="translate(422.333139 398.836997)scale(0.2 -0.2)">
       <use transform="scale(0.996264)" xlink:href="#CMR17-49"/>
       <use transform="translate(45.690477 0)scale(0.996264)" xlink:href="#CMR17-50"/>
       <use transform="translate(91.380954 0)scale(0.996264)" xlink:href="#CMMI12-58"/>
       <use transform="translate(118.478131 0)scale(0.996264)" xlink:href="#CMR17-53"/>
      </g>
     </g>
    </g>
    <g id="xtick_7">
     <g id="line2d_7">
      <g>
       <use style="stroke:#000000;stroke-width:0.8;" x="508.5" xlink:href="#ma0047b5313" y="378"/>
      </g>
     </g>
     <g id="text_7">
      <!-- $\mathdefault{15.0}$ -->
      <g transform="translate(492.083139 398.836997)scale(0.2 -0.2)">
       <use transform="scale(0.996264)" xlink:href="#CMR17-49"/>
       <use transform="translate(45.690477 0)scale(0.996264)" xlink:href="#CMR17-53"/>
       <use transform="translate(91.380954 0)scale(0.996264)" xlink:href="#CMMI12-58"/>
       <use transform="translate(118.478131 0)scale(0.996264)" xlink:href="#CMR17-48"/>
      </g>
     </g>
    </g>
    <g id="xtick_8">
     <g id="line2d_8">
      <g>
       <use style="stroke:#000000;stroke-width:0.8;" x="578.25" xlink:href="#ma0047b5313" y="378"/>
      </g>
     </g>
     <g id="text_8">
      <!-- $\mathdefault{17.5}$ -->
      <g transform="translate(561.833139 398.836997)scale(0.2 -0.2)">
       <use transform="scale(0.996264)" xlink:href="#CMR17-49"/>
       <use transform="translate(45.690477 0)scale(0.996264)" xlink:href="#CMR17-55"/>
       <use transform="translate(91.380954 0)scale(0.996264)" xlink:href="#CMMI12-58"/>
       <use transform="translate(118.478131 0)scale(0.996264)" xlink:href="#CMR17-53"/>
      </g>
     </g>
    </g>
    <g id="xtick_9">
     <g id="line2d_9">
      <g>
       <use style="stroke:#000000;stroke-width:0.8;" x="648" xlink:href="#ma0047b5313" y="378"/>
      </g>
     </g>
     <g id="text_9">
      <!-- $\mathdefault{20.0}$ -->
      <g transform="translate(631.583139 398.836997)scale(0.2 -0.2)">
       <use transform="scale(0.996264)" xlink:href="#CMR17-50"/>
       <use transform="translate(45.690477 0)scale(0.996264)" xlink:href="#CMR17-48"/>
       <use transform="translate(91.380954 0)scale(0.996264)" xlink:href="#CMMI12-58"/>
       <use transform="translate(118.478131 0)scale(0.996264)" xlink:href="#CMR17-48"/>
      </g>
     </g>
    </g>
    <g id="text_10">
     <!-- Hyperparameter Tuning Iterations -->
     <defs>
      <path d="M 56.09375 60.90625 
C 56.09375 65.390625 57.203125 65.390625 64.09375 65.390625 
L 64.09375 68 
C 61.203125 67.796875 55.90625 67.796875 52.796875 67.796875 
C 49.703125 67.796875 44.40625 67.796875 41.5 68 
L 41.5 65.390625 
C 48.40625 65.390625 49.5 65.390625 49.5 60.90625 
L 49.5 36.59375 
L 19.703125 36.59375 
L 19.703125 60.90625 
C 19.703125 65.390625 20.796875 65.390625 27.703125 65.390625 
L 27.703125 68 
C 24.796875 67.796875 19.5 67.796875 16.40625 67.796875 
C 13.296875 67.796875 8 67.796875 5.09375 68 
L 5.09375 65.390625 
C 12 65.390625 13.09375 65.390625 13.09375 60.90625 
L 13.09375 7.0625 
C 13.09375 2.59375 12 2.59375 5.09375 2.59375 
L 5.09375 0 
C 8 0.1875 13.296875 0.1875 16.40625 0.1875 
C 19.5 0.1875 24.796875 0.1875 27.703125 0 
L 27.703125 2.59375 
C 20.796875 2.59375 19.703125 2.59375 19.703125 7.0625 
L 19.703125 34 
L 49.5 34 
L 49.5 7.0625 
C 49.5 2.59375 48.40625 2.59375 41.5 2.59375 
L 41.5 0 
C 44.40625 0.1875 49.703125 0.1875 52.796875 0.1875 
C 55.90625 0.1875 61.203125 0.1875 64.09375 0 
L 64.09375 2.59375 
C 57.203125 2.59375 56.09375 2.59375 56.09375 7.0625 
z
" id="CMR17-72"/>
      <path d="M 39 34.109375 
C 41.5 40.296875 46 40.390625 47.40625 40.390625 
L 47.40625 43 
C 45.5 42.890625 43 42.796875 41.09375 42.796875 
C 39 42.796875 35.703125 42.796875 33.703125 43 
L 33.703125 40.390625 
C 37.5 40.09375 37.59375 37.25 37.59375 36.4375 
C 37.59375 35.4375 37.40625 34.921875 36.90625 33.71875 
L 26 6.390625 
L 14.09375 35.9375 
C 13.59375 37.15625 13.59375 37.859375 13.59375 37.96875 
C 13.59375 40.1875 15.90625 40.390625 18.296875 40.390625 
L 18.296875 43 
C 15.90625 42.796875 11.59375 42.796875 9.09375 42.796875 
C 6.40625 42.796875 3.203125 42.796875 1 43 
L 1 40.390625 
C 6.40625 40.390625 7 39.890625 8.296875 36.640625 
L 23.203125 -0.484375 
C 18.703125 -12.421875 16.09375 -19.40625 9.796875 -19.40625 
C 8.703125 -19.40625 6.203125 -19.109375 4.40625 -17.28125 
C 6.703125 -17.078125 7.703125 -15.65625 7.703125 -13.9375 
C 7.703125 -12.21875 6.5 -10.703125 4.5 -10.703125 
C 2.296875 -10.703125 1.203125 -12.21875 1.203125 -14.046875 
C 1.203125 -18.09375 5.296875 -21 9.796875 -21 
C 15.59375 -21 19.203125 -15.359375 21.203125 -10.296875 
z
" id="CMR17-121"/>
      <path d="M 22 -17.40625 
C 15.59375 -17.40625 15.203125 -17 15.203125 -13.03125 
L 15.203125 5.9375 
C 18.09375 1.703125 22.296875 -1 27.59375 -1 
C 37.59375 -1 47.703125 7.859375 47.703125 21.59375 
C 47.703125 34.3125 39 44 28.703125 44 
C 22.703125 44 17.796875 40.671875 15 36.640625 
L 15 44 
L 3.09375 42.890625 
L 3.09375 40.265625 
C 9 40.265625 9.90625 39.671875 9.90625 34.8125 
L 9.90625 -13.03125 
C 9.90625 -16.890625 9.5 -17.40625 3.09375 -17.40625 
L 3.09375 -20 
C 5.5 -19.8125 9.90625 -19.8125 12.5 -19.8125 
C 15.09375 -19.8125 19.59375 -19.8125 22 -20 
z
M 15.203125 31.484375 
C 15.203125 32.90625 15.203125 35.015625 19.09375 38.765625 
C 19.59375 39.15625 23 42.1875 28 42.1875 
C 35.296875 42.1875 41.296875 33 41.296875 21.5 
C 41.296875 9.984375 34.90625 0.59375 27 0.59375 
C 23.40625 0.59375 19.5 2.3125 16.5 7.046875 
C 15.203125 9.28125 15.203125 9.875 15.203125 11.5 
z
" id="CMR17-112"/>
      <path d="M 38.09375 23.484375 
C 38.5 23.890625 38.5 24.09375 38.5 25.09375 
C 38.5 35.171875 33.09375 44 21.703125 44 
C 11.09375 44 2.703125 33.984375 2.703125 21.78125 
C 2.703125 8.65625 12.203125 -1 22.796875 -1 
C 34 -1 38.40625 9.671875 38.40625 11.796875 
C 38.40625 12.5 37.796875 12.5 37.59375 12.5 
C 36.90625 12.5 36.796875 12.296875 36.40625 11.078125 
C 34.203125 4.21875 28.703125 0.796875 23.5 0.796875 
C 19.203125 0.796875 14.90625 3.21875 12.203125 7.65625 
C 9.09375 12.796875 9.09375 18.75 9.09375 23.484375 
z
M 9.203125 25 
C 9.90625 39.234375 17.59375 42.390625 21.59375 42.390625 
C 28.40625 42.390625 33 36.0625 33.09375 25 
z
" id="CMR17-101"/>
      <path d="M 15 23.703125 
C 15 33.34375 19.09375 42.390625 26.59375 42.390625 
C 27.296875 42.390625 28 42.296875 28.703125 41.984375 
C 28.703125 41.984375 26.5 41.28125 26.5 38.671875 
C 26.5 36.265625 28.40625 35.265625 29.90625 35.265625 
C 31.09375 35.265625 33.296875 35.96875 33.296875 38.78125 
C 33.296875 41.984375 30.09375 44 26.703125 44 
C 19.09375 44 15.796875 36.5625 14.796875 33.046875 
L 14.703125 33.046875 
L 14.703125 44 
L 3.09375 42.890625 
L 3.09375 40.28125 
C 9 40.28125 9.90625 39.6875 9.90625 34.859375 
L 9.90625 6.921875 
C 9.90625 3.09375 9.5 2.59375 3.09375 2.59375 
L 3.09375 0 
C 5.5 0.1875 10.09375 0.1875 12.703125 0.1875 
C 15.59375 0.1875 20.703125 0.1875 23.40625 0 
L 23.40625 2.59375 
C 16.203125 2.59375 15 2.59375 15 7.109375 
z
" id="CMR17-114"/>
      <path d="M 36 25.875 
C 36 32 36 35.546875 31.796875 39.59375 
C 28.09375 42.984375 23.796875 44 20.40625 44 
C 12.5 44 6.796875 37.625 6.796875 30.890625 
C 6.796875 27.1875 9.796875 27 10.40625 27 
C 11.703125 27 14 27.796875 14 30.59375 
C 14 33.09375 12.09375 34.1875 10.40625 34.1875 
C 10 34.1875 9.5 34.09375 9.203125 34 
C 11.296875 40.53125 16.703125 42.390625 20.203125 42.390625 
C 25.203125 42.390625 30.703125 37.828125 30.703125 29.296875 
L 30.703125 25.5 
C 24.796875 25.296875 17.703125 24.5 12.09375 21.453125 
C 5.796875 17.921875 4 12.84375 4 9 
C 4 1.203125 13 -1 18.296875 -1 
C 23.796875 -1 28.90625 2.109375 31.09375 7.890625 
C 31.296875 3.421875 34.09375 -0.609375 38.5 -0.609375 
C 40.59375 -0.609375 45.90625 0.796875 45.90625 8.796875 
L 45.90625 14.46875 
L 44.09375 14.46875 
L 44.09375 8.703125 
C 44.09375 2.515625 41.40625 1.703125 40.09375 1.703125 
C 36 1.703125 36 6.96875 36 11.4375 
z
M 30.703125 13.859375 
C 30.703125 5.046875 24.5 0.59375 19 0.59375 
C 14 0.59375 10.09375 4.34375 10.09375 9 
C 10.09375 12.046875 11.40625 17.40625 17.203125 20.65625 
C 22 23.390625 27.5 23.796875 30.703125 24 
z
" id="CMR17-97"/>
      <path d="M 67.59375 30.53125 
C 67.59375 35.5625 66.703125 44 54.796875 44 
C 48 44 43.296875 39.375 41.5 33.953125 
L 41.40625 33.953125 
C 40.203125 42.1875 34.296875 44 28.703125 44 
C 20.796875 44 16.703125 37.875 15.203125 33.84375 
L 15.09375 33.84375 
L 15.09375 44 
L 3.296875 42.890625 
L 3.296875 40.28125 
C 9.203125 40.28125 10.09375 39.6875 10.09375 34.859375 
L 10.09375 6.921875 
C 10.09375 3.09375 9.703125 2.59375 3.296875 2.59375 
L 3.296875 0 
C 5.703125 0.1875 10.09375 0.1875 12.703125 0.1875 
C 15.296875 0.1875 19.796875 0.1875 22.203125 0 
L 22.203125 2.59375 
C 15.796875 2.59375 15.40625 3 15.40625 6.921875 
L 15.40625 26.21875 
C 15.40625 35.453125 21 42.390625 28 42.390625 
C 35.40625 42.390625 36.203125 35.765625 36.203125 30.9375 
L 36.203125 6.921875 
C 36.203125 3.09375 35.796875 2.59375 29.40625 2.59375 
L 29.40625 0 
C 31.796875 0.1875 36.203125 0.1875 38.796875 0.1875 
C 41.40625 0.1875 45.90625 0.1875 48.296875 0 
L 48.296875 2.59375 
C 41.90625 2.59375 41.5 3 41.5 6.921875 
L 41.5 26.21875 
C 41.5 35.453125 47.09375 42.390625 54.09375 42.390625 
C 61.5 42.390625 62.296875 35.765625 62.296875 30.9375 
L 62.296875 6.921875 
C 62.296875 3.09375 61.90625 2.59375 55.5 2.59375 
L 55.5 0 
C 57.90625 0.1875 62.296875 0.1875 64.90625 0.1875 
C 67.5 0.1875 72 0.1875 74.40625 0 
L 74.40625 2.59375 
C 68 2.59375 67.59375 3 67.59375 6.921875 
z
" id="CMR17-109"/>
      <path d="M 15.09375 40.390625 
L 29.09375 40.390625 
L 29.09375 43 
L 15.09375 43 
L 15.09375 62 
L 13.296875 62 
C 13.09375 51.4375 9.59375 42.1875 1.09375 41.984375 
L 1.09375 40.390625 
L 9.796875 40.390625 
L 9.796875 12.15625 
C 9.796875 10.234375 9.796875 -1 21.40625 -1 
C 27.296875 -1 30.703125 4.8125 30.703125 12.25 
L 30.703125 17.984375 
L 28.90625 17.984375 
L 28.90625 12.34375 
C 28.90625 5.421875 26.203125 0.796875 22 0.796875 
C 19.09375 0.796875 15.09375 2.796875 15.09375 11.953125 
z
" id="CMR17-116"/>
      <path d="M 62.203125 67.6875 
L 4.5 67.6875 
L 2.796875 45.6875 
L 4.59375 45.6875 
C 5.90625 62.203125 7.296875 65.09375 22.703125 65.09375 
C 24.5 65.09375 27.40625 65.09375 28.203125 64.984375 
C 30.09375 64.6875 30.09375 63.5 30.09375 61.203125 
L 30.09375 7.265625 
C 30.09375 3.6875 29.796875 2.59375 21.5 2.59375 
L 18.703125 2.59375 
L 18.703125 0 
C 23.5 0.09375 28.5 0.1875 33.40625 0.1875 
C 38.296875 0.1875 43.296875 0.09375 48.09375 0 
L 48.09375 2.59375 
L 45.296875 2.59375 
C 37 2.59375 36.703125 3.6875 36.703125 7.265625 
L 36.703125 61.203125 
C 36.703125 63.390625 36.703125 64.59375 38.5 64.984375 
C 39.296875 65.09375 42.203125 65.09375 44 65.09375 
C 59.296875 65.09375 60.796875 62.203125 62.09375 45.6875 
L 63.90625 45.6875 
z
" id="CMR17-84"/>
      <path d="M 29.40625 42.890625 
L 29.40625 40.296875 
C 35.296875 40.296875 36.203125 39.6875 36.203125 34.828125 
L 36.203125 16.453125 
C 36.203125 7.96875 31.703125 0.59375 24.296875 0.59375 
C 16.09375 0.59375 15.40625 5.546875 15.40625 10.796875 
L 15.40625 44 
L 3.296875 42.890625 
L 3.296875 40.296875 
C 7.296875 40.296875 10 40.296875 10.09375 36.25 
L 10.09375 16.859375 
C 10.09375 10.09375 10.09375 5.75 12.703125 2.921875 
C 14 1.609375 16.5 -1 23.703125 -1 
C 32.203125 -1 35.5 6.25 36.296875 8.375 
L 36.40625 8.375 
L 36.40625 -1 
L 48.296875 -0.203125 
L 48.296875 2.40625 
C 42.40625 2.40625 41.5 3.015625 41.5 7.859375 
L 41.5 44 
z
" id="CMR17-117"/>
      <path d="M 41.5 30.53125 
C 41.5 35.65625 40.5 44 28.703125 44 
C 20.796875 44 16.703125 37.875 15.203125 33.84375 
L 15.09375 33.84375 
L 15.09375 44 
L 3.296875 42.890625 
L 3.296875 40.28125 
C 9.203125 40.28125 10.09375 39.6875 10.09375 34.859375 
L 10.09375 6.921875 
C 10.09375 3.09375 9.703125 2.59375 3.296875 2.59375 
L 3.296875 0 
C 5.703125 0.1875 10.09375 0.1875 12.703125 0.1875 
C 15.296875 0.1875 19.796875 0.1875 22.203125 0 
L 22.203125 2.59375 
C 15.796875 2.59375 15.40625 3 15.40625 6.921875 
L 15.40625 26.21875 
C 15.40625 35.453125 21 42.390625 28 42.390625 
C 35.40625 42.390625 36.203125 35.765625 36.203125 30.9375 
L 36.203125 6.921875 
C 36.203125 3.09375 35.796875 2.59375 29.40625 2.59375 
L 29.40625 0 
C 31.796875 0.1875 36.203125 0.1875 38.796875 0.1875 
C 41.40625 0.1875 45.90625 0.1875 48.296875 0 
L 48.296875 2.59375 
C 41.90625 2.59375 41.5 3 41.5 6.921875 
z
" id="CMR17-110"/>
      <path d="M 15.5 61.890625 
C 15.5 64.09375 13.703125 66 11.40625 66 
C 9.203125 66 7.296875 64.1875 7.296875 61.890625 
C 7.296875 59.6875 9.09375 57.796875 11.40625 57.796875 
C 13.59375 57.796875 15.5 59.59375 15.5 61.890625 
z
M 3.796875 42.890625 
L 3.796875 40.296875 
C 9.40625 40.296875 10.203125 39.6875 10.203125 34.859375 
L 10.203125 6.921875 
C 10.203125 3.09375 9.796875 2.59375 3.40625 2.59375 
L 3.40625 0 
C 5.796875 0.1875 10.09375 0.1875 12.59375 0.1875 
C 15 0.1875 19.09375 0.1875 21.40625 0 
L 21.40625 2.59375 
C 15.5 2.59375 15.296875 3.203125 15.296875 6.8125 
L 15.296875 44 
z
" id="CMR17-105"/>
      <path d="M 11.09375 18.203125 
C 13 16.6875 16.296875 15 20.296875 15 
C 28.203125 15 35 21.234375 35 29.609375 
C 35 32.234375 34.203125 36.265625 31.203125 39.390625 
C 34 42.390625 38.09375 43.390625 40.40625 43.390625 
C 40.796875 43.390625 41.40625 43.390625 41.90625 43.09375 
C 41.5 42.984375 40.59375 42.59375 40.59375 40.984375 
C 40.59375 39.6875 41.5 38.796875 42.796875 38.796875 
C 44.296875 38.796875 45.09375 39.796875 45.09375 41.09375 
C 45.09375 42.984375 43.59375 45 40.40625 45 
C 36.40625 45 32.90625 43.09375 30.09375 40.484375 
C 27.09375 43.1875 23.5 44.1875 20.296875 44.1875 
C 12.40625 44.1875 5.59375 37.984375 5.59375 29.609375 
C 5.59375 23.859375 8.90625 20.21875 9.90625 19.21875 
C 6.90625 15.6875 6.90625 11.59375 6.90625 11.09375 
C 6.90625 8.5 7.90625 4.6875 11.296875 2.59375 
C 6.09375 1.28125 2 -2.875 2 -8.078125 
C 2 -15.5625 11.5 -21 22.90625 -21 
C 33.90625 -21 43.796875 -15.765625 43.796875 -7.96875 
C 43.796875 6 29 6 21.296875 6 
C 19 6 14.90625 6 14.40625 6.09375 
C 11.296875 6.59375 9.203125 9.390625 9.203125 12.890625 
C 9.203125 13.796875 9.203125 16 11.09375 18.203125 
z
M 20.296875 16.6875 
C 11.5 16.6875 11.5 27.59375 11.5 29.609375 
C 11.5 31.625 11.5 42.484375 20.296875 42.484375 
C 29.09375 42.484375 29.09375 31.625 29.09375 29.609375 
C 29.09375 27.59375 29.09375 16.6875 20.296875 16.6875 
z
M 22.90625 -19.3125 
C 12.90625 -19.3125 6 -13.796875 6 -8.078125 
C 6 -4.859375 7.703125 -1.84375 9.90625 -0.171875 
C 12.40625 1.59375 13.40625 1.59375 20.203125 1.59375 
C 28.40625 1.59375 39.796875 1.59375 39.796875 -8.078125 
C 39.796875 -13.796875 32.90625 -19.3125 22.90625 -19.3125 
z
" id="CMR17-103"/>
      <path d="M 19.703125 60.90625 
C 19.703125 65.390625 20.90625 65.390625 28.09375 65.390625 
L 28.09375 68 
C 24.90625 67.796875 19.796875 67.796875 16.40625 67.796875 
C 13 67.796875 7.90625 67.796875 4.703125 68 
L 4.703125 65.390625 
C 11.90625 65.390625 13.09375 65.390625 13.09375 60.90625 
L 13.09375 7.078125 
C 13.09375 2.59375 11.90625 2.59375 4.703125 2.59375 
L 4.703125 0 
C 7.90625 0.1875 13 0.1875 16.40625 0.1875 
C 19.796875 0.1875 24.90625 0.1875 28.09375 0 
L 28.09375 2.59375 
C 20.90625 2.59375 19.703125 2.59375 19.703125 7.078125 
z
" id="CMR17-73"/>
      <path d="M 43.09375 21.1875 
C 43.09375 34 33.796875 44 22.90625 44 
C 12 44 2.703125 34 2.703125 21.1875 
C 2.703125 8.59375 12 -1 22.90625 -1 
C 33.796875 -1 43.09375 8.59375 43.09375 21.1875 
z
M 22.90625 0.796875 
C 18.203125 0.796875 14.203125 3.59375 11.90625 7.5 
C 9.40625 12 9.09375 17.59375 9.09375 22 
C 9.09375 26.1875 9.296875 31.390625 11.90625 35.890625 
C 13.90625 39.1875 17.796875 42.390625 22.90625 42.390625 
C 27.40625 42.390625 31.203125 39.890625 33.59375 36.390625 
C 36.703125 31.6875 36.703125 25.09375 36.703125 22 
C 36.703125 18.09375 36.5 12.09375 33.796875 7.296875 
C 31 2.6875 26.703125 0.796875 22.90625 0.796875 
z
" id="CMR17-111"/>
      <path d="M 30.90625 42 
C 30.90625 43.796875 30.796875 43.890625 30.203125 43.890625 
C 29.796875 43.890625 29.703125 43.796875 28.5 42.296875 
C 28.203125 41.890625 27.296875 40.890625 27 40.5 
C 23.796875 43.890625 19.296875 44 17.59375 44 
C 6.5 44 2.5 38.1875 2.5 32.390625 
C 2.5 23.390625 12.703125 21.296875 15.59375 20.6875 
C 21.90625 19.390625 24.09375 19 26.203125 17.1875 
C 27.5 16 29.703125 13.796875 29.703125 10.1875 
C 29.703125 6 27.296875 0.59375 18.09375 0.59375 
C 9.40625 0.59375 6.296875 7.1875 4.5 16 
C 4.203125 17.390625 4.203125 17.5 3.40625 17.5 
C 2.59375 17.5 2.5 17.390625 2.5 15.390625 
L 2.5 1 
C 2.5 -0.8125 2.59375 -0.90625 3.203125 -0.90625 
C 3.703125 -0.90625 3.796875 -0.8125 4.296875 0 
C 4.90625 0.890625 6.40625 3.296875 7 4.296875 
C 9 1.59375 12.5 -1 18.09375 -1 
C 28 -1 33.296875 4.390625 33.296875 12.1875 
C 33.296875 17.296875 30.59375 20 29.296875 21.1875 
C 26.296875 24.296875 22.796875 25 18.59375 25.796875 
C 13.09375 27 6.09375 28.390625 6.09375 34.5 
C 6.09375 37.09375 7.5 42.59375 17.59375 42.59375 
C 28.296875 42.59375 28.90625 32.59375 29.09375 29.390625 
C 29.203125 28.890625 29.703125 28.796875 30 28.796875 
C 30.90625 28.796875 30.90625 29.09375 30.90625 30.796875 
z
" id="CMR17-115"/>
     </defs>
     <g transform="translate(231.33443 420.549627)scale(0.2 -0.2)">
      <use transform="scale(0.996264)" xlink:href="#CMR17-72"/>
      <use transform="translate(69.07243 0)scale(0.996264)" xlink:href="#CMR17-121"/>
      <use transform="translate(117.365346 0)scale(0.996264)" xlink:href="#CMR17-112"/>
      <use transform="translate(170.863154 0)scale(0.996264)" xlink:href="#CMR17-101"/>
      <use transform="translate(211.348815 0)scale(0.996264)" xlink:href="#CMR17-114"/>
      <use transform="translate(246.629582 0)scale(0.996264)" xlink:href="#CMR17-112"/>
      <use transform="translate(297.524952 0)scale(0.996264)" xlink:href="#CMR17-97"/>
      <use transform="translate(343.215429 0)scale(0.996264)" xlink:href="#CMR17-114"/>
      <use transform="translate(378.496197 0)scale(0.996264)" xlink:href="#CMR17-97"/>
      <use transform="translate(424.186674 0)scale(0.996264)" xlink:href="#CMR17-109"/>
      <use transform="translate(501.106264 0)scale(0.996264)" xlink:href="#CMR17-101"/>
      <use transform="translate(541.591925 0)scale(0.996264)" xlink:href="#CMR17-116"/>
      <use transform="translate(576.872692 0)scale(0.996264)" xlink:href="#CMR17-101"/>
      <use transform="translate(617.358353 0)scale(0.996264)" xlink:href="#CMR17-114"/>
      <use transform="translate(682.715087 0)scale(0.996264)" xlink:href="#CMR17-84"/>
      <use transform="translate(741.417712 0)scale(0.996264)" xlink:href="#CMR17-117"/>
      <use transform="translate(792.313082 0)scale(0.996264)" xlink:href="#CMR17-110"/>
      <use transform="translate(843.208452 0)scale(0.996264)" xlink:href="#CMR17-105"/>
      <use transform="translate(868.07951 0)scale(0.996264)" xlink:href="#CMR17-110"/>
      <use transform="translate(918.97488 0)scale(0.996264)" xlink:href="#CMR17-103"/>
      <use transform="translate(994.741323 0)scale(0.996264)" xlink:href="#CMR17-73"/>
      <use transform="translate(1027.379733 0)scale(0.996264)" xlink:href="#CMR17-116"/>
      <use transform="translate(1062.6605 0)scale(0.996264)" xlink:href="#CMR17-101"/>
      <use transform="translate(1103.146161 0)scale(0.996264)" xlink:href="#CMR17-114"/>
      <use transform="translate(1138.426929 0)scale(0.996264)" xlink:href="#CMR17-97"/>
      <use transform="translate(1184.117406 0)scale(0.996264)" xlink:href="#CMR17-116"/>
      <use transform="translate(1219.398174 0)scale(0.996264)" xlink:href="#CMR17-105"/>
      <use transform="translate(1244.269232 0)scale(0.996264)" xlink:href="#CMR17-111"/>
      <use transform="translate(1289.959709 0)scale(0.996264)" xlink:href="#CMR17-110"/>
      <use transform="translate(1340.855079 0)scale(0.996264)" xlink:href="#CMR17-115"/>
     </g>
    </g>
   </g>
   <g id="matplotlib.axis_2">
    <g id="ytick_1">
     <g id="line2d_10">
      <defs>
       <path d="M 0 0 
L -3.5 0 
" id="mbe96142573" style="stroke:#000000;stroke-width:0.8;"/>
      </defs>
      <g>
       <use style="stroke:#000000;stroke-width:0.8;" x="90" xlink:href="#mbe96142573" y="378"/>
      </g>
     </g>
     <g id="text_11">
      <!-- $\mathdefault{0.90}$ -->
      <defs>
       <path d="M 35.203125 29.234375 
C 35.203125 7 26.09375 0.390625 18.59375 0.390625 
C 16.296875 0.390625 10.703125 0.671875 8.40625 4.390625 
C 11 4 12.90625 5.390625 12.90625 7.890625 
C 12.90625 10.59375 10.703125 11.5 9.296875 11.5 
C 8.40625 11.5 5.703125 11.09375 5.703125 7.6875 
C 5.703125 1.0625 11.59375 -2 18.796875 -2 
C 30.296875 -2 42 10.390625 42 32.65625 
C 42 60.265625 30.796875 66 23.203125 66 
C 13.296875 66 3.796875 57.25 3.796875 43.75 
C 3.796875 31.25 11.90625 22 22.09375 22 
C 30.5 22 34.203125 29.84375 35.203125 33.15625 
z
M 22.296875 23.59375 
C 19.59375 23.59375 15.796875 24.09375 12.703125 30.140625 
C 10.59375 34.078125 10.59375 38.703125 10.59375 43.640625 
C 10.59375 49.59375 10.59375 53.71875 13.40625 58.15625 
C 14.796875 60.265625 17.40625 63.6875 23.203125 63.6875 
C 35 63.6875 35 45.453125 35 41.421875 
C 35 34.265625 31.796875 23.59375 22.296875 23.59375 
z
" id="CMR17-57"/>
      </defs>
      <g transform="translate(50.166278 384.918498)scale(0.2 -0.2)">
       <use transform="scale(0.996264)" xlink:href="#CMR17-48"/>
       <use transform="translate(45.690477 0)scale(0.996264)" xlink:href="#CMMI12-58"/>
       <use transform="translate(72.787654 0)scale(0.996264)" xlink:href="#CMR17-57"/>
       <use transform="translate(118.478131 0)scale(0.996264)" xlink:href="#CMR17-48"/>
      </g>
     </g>
    </g>
    <g id="ytick_2">
     <g id="line2d_11">
      <g>
       <use style="stroke:#000000;stroke-width:0.8;" x="90" xlink:href="#mbe96142573" y="312.768"/>
      </g>
     </g>
     <g id="text_12">
      <!-- $\mathdefault{0.92}$ -->
      <g transform="translate(50.166278 319.686498)scale(0.2 -0.2)">
       <use transform="scale(0.996264)" xlink:href="#CMR17-48"/>
       <use transform="translate(45.690477 0)scale(0.996264)" xlink:href="#CMMI12-58"/>
       <use transform="translate(72.787654 0)scale(0.996264)" xlink:href="#CMR17-57"/>
       <use transform="translate(118.478131 0)scale(0.996264)" xlink:href="#CMR17-50"/>
      </g>
     </g>
    </g>
    <g id="ytick_3">
     <g id="line2d_12">
      <g>
       <use style="stroke:#000000;stroke-width:0.8;" x="90" xlink:href="#mbe96142573" y="247.536"/>
      </g>
     </g>
     <g id="text_13">
      <!-- $\mathdefault{0.94}$ -->
      <defs>
       <path d="M 33.59375 64.796875 
C 33.59375 66.890625 33.5 67 31.703125 67 
L 2 19.59375 
L 2 17 
L 27.796875 17 
L 27.796875 7.1875 
C 27.796875 3.59375 27.59375 2.59375 20.59375 2.59375 
L 18.703125 2.59375 
L 18.703125 0 
C 21.90625 0.1875 27.296875 0.1875 30.703125 0.1875 
C 34.09375 0.1875 39.5 0.1875 42.703125 0 
L 42.703125 2.59375 
L 40.796875 2.59375 
C 33.796875 2.59375 33.59375 3.59375 33.59375 7.1875 
L 33.59375 17 
L 43.796875 17 
L 43.796875 19.59375 
L 33.59375 19.59375 
z
M 28.09375 58.171875 
L 28.09375 19.59375 
L 4 19.59375 
z
" id="CMR17-52"/>
      </defs>
      <g transform="translate(50.166278 254.454498)scale(0.2 -0.2)">
       <use transform="scale(0.996264)" xlink:href="#CMR17-48"/>
       <use transform="translate(45.690477 0)scale(0.996264)" xlink:href="#CMMI12-58"/>
       <use transform="translate(72.787654 0)scale(0.996264)" xlink:href="#CMR17-57"/>
       <use transform="translate(118.478131 0)scale(0.996264)" xlink:href="#CMR17-52"/>
      </g>
     </g>
    </g>
    <g id="ytick_4">
     <g id="line2d_13">
      <g>
       <use style="stroke:#000000;stroke-width:0.8;" x="90" xlink:href="#mbe96142573" y="182.304"/>
      </g>
     </g>
     <g id="text_14">
      <!-- $\mathdefault{0.96}$ -->
      <defs>
       <path d="M 10.59375 34.34375 
C 10.59375 58 21.796875 63.6875 28.296875 63.6875 
C 30.40625 63.6875 35.5 63.265625 37.5 59.09375 
C 35.90625 59.09375 32.90625 59.09375 32.90625 55.59375 
C 32.90625 52.890625 35.09375 52 36.5 52 
C 37.40625 52 40.09375 52.390625 40.09375 55.796875 
C 40.09375 62.296875 35.09375 66 28.203125 66 
C 16.296875 66 3.796875 53.296875 3.796875 31.421875 
C 3.796875 4.015625 15.09375 -2 23.09375 -2 
C 32.796875 -2 42 6.734375 42 20.234375 
C 42 32.828125 33.90625 42 23.703125 42 
C 17.59375 42 13.09375 37.96875 10.59375 30.921875 
z
M 23.09375 0.390625 
C 10.796875 0.390625 10.796875 18.9375 10.796875 22.65625 
C 10.796875 29.90625 14.203125 40.390625 23.5 40.390625 
C 25.203125 40.390625 30.09375 40.390625 33.40625 33.4375 
C 35.203125 29.515625 35.203125 25.375 35.203125 20.34375 
C 35.203125 14.90625 35.203125 10.875 33.09375 6.84375 
C 30.90625 2.703125 27.703125 0.390625 23.09375 0.390625 
z
" id="CMR17-54"/>
      </defs>
      <g transform="translate(50.166278 189.222498)scale(0.2 -0.2)">
       <use transform="scale(0.996264)" xlink:href="#CMR17-48"/>
       <use transform="translate(45.690477 0)scale(0.996264)" xlink:href="#CMMI12-58"/>
       <use transform="translate(72.787654 0)scale(0.996264)" xlink:href="#CMR17-57"/>
       <use transform="translate(118.478131 0)scale(0.996264)" xlink:href="#CMR17-54"/>
      </g>
     </g>
    </g>
    <g id="ytick_5">
     <g id="line2d_14">
      <g>
       <use style="stroke:#000000;stroke-width:0.8;" x="90" xlink:href="#mbe96142573" y="117.072"/>
      </g>
     </g>
     <g id="text_15">
      <!-- $\mathdefault{0.98}$ -->
      <defs>
       <path d="M 27.203125 35.765625 
C 33.5 38.96875 39.90625 43.796875 39.90625 51.53125 
C 39.90625 60.6875 31.09375 66 23 66 
C 13.90625 66 5.90625 59.375 5.90625 50.234375 
C 5.90625 47.71875 6.5 43.390625 10.40625 39.578125 
C 11.40625 38.578125 15.59375 35.5625 18.296875 33.65625 
C 13.796875 31.34375 3.296875 25.8125 3.296875 14.765625 
C 3.296875 4.40625 13.09375 -2 22.796875 -2 
C 33.5 -2 42.5 5.71875 42.5 15.96875 
C 42.5 25.109375 36.40625 29.328125 32.40625 32.046875 
z
M 14.09375 44.609375 
C 13.296875 45.109375 9.296875 48.21875 9.296875 52.9375 
C 9.296875 59.078125 15.59375 63.6875 22.796875 63.6875 
C 30.703125 63.6875 36.5 58.0625 36.5 51.53125 
C 36.5 42.1875 26.09375 36.859375 25.59375 36.859375 
C 25.5 36.859375 25.40625 36.859375 24.59375 37.46875 
z
M 32.5 24 
C 34 22.90625 38.796875 19.578125 38.796875 13.453125 
C 38.796875 6.015625 31.40625 0.390625 23 0.390625 
C 13.90625 0.390625 7 6.921875 7 14.859375 
C 7 22.796875 13.09375 29.4375 20 32.546875 
z
" id="CMR17-56"/>
      </defs>
      <g transform="translate(50.166278 123.990498)scale(0.2 -0.2)">
       <use transform="scale(0.996264)" xlink:href="#CMR17-48"/>
       <use transform="translate(45.690477 0)scale(0.996264)" xlink:href="#CMMI12-58"/>
       <use transform="translate(72.787654 0)scale(0.996264)" xlink:href="#CMR17-57"/>
       <use transform="translate(118.478131 0)scale(0.996264)" xlink:href="#CMR17-56"/>
      </g>
     </g>
    </g>
    <g id="ytick_6">
     <g id="line2d_15">
      <g>
       <use style="stroke:#000000;stroke-width:0.8;" x="90" xlink:href="#mbe96142573" y="51.84"/>
      </g>
     </g>
     <g id="text_16">
      <!-- $\mathdefault{1.00}$ -->
      <g transform="translate(50.166278 58.758498)scale(0.2 -0.2)">
       <use transform="scale(0.996264)" xlink:href="#CMR17-49"/>
       <use transform="translate(45.690477 0)scale(0.996264)" xlink:href="#CMMI12-58"/>
       <use transform="translate(72.787654 0)scale(0.996264)" xlink:href="#CMR17-48"/>
       <use transform="translate(118.478131 0)scale(0.996264)" xlink:href="#CMR17-48"/>
      </g>
     </g>
    </g>
    <g id="text_17">
     <!-- Best Validation R² Score -->
     <defs>
      <path d="M 5.203125 68 
L 5.203125 65.390625 
C 12.09375 65.390625 13.203125 65.390625 13.203125 60.890625 
L 13.203125 7.046875 
C 13.203125 2.59375 12.09375 2.59375 5.203125 2.59375 
L 5.203125 0 
L 39.59375 0 
C 52.40625 0 60.703125 9.03125 60.703125 18.046875 
C 60.703125 26.96875 52.5 34.59375 41.796875 35.296875 
C 51.40625 37.1875 58.09375 43.59375 58.09375 51.1875 
C 58.09375 59.5 49.90625 68 37 68 
z
M 19.5 36 
L 19.5 61.5 
C 19.5 64.890625 19.703125 65.390625 23.703125 65.390625 
L 36.5 65.390625 
C 46.40625 65.390625 50.796875 57.390625 50.796875 51.1875 
C 50.796875 43.59375 44.703125 36 33.90625 36 
z
M 23.703125 2.59375 
C 19.703125 2.59375 19.5 3.09375 19.5 6.453125 
L 19.5 34.390625 
L 38 34.390625 
C 48.296875 34.390625 53.296875 25.375 53.296875 18.140625 
C 53.296875 10.90625 47.59375 2.59375 36.703125 2.59375 
z
" id="CMR17-66"/>
      <path d="M 59 58.78125 
C 59.90625 60.984375 61.5 65.296875 68.203125 65.390625 
L 68.203125 68 
C 65.90625 67.796875 63.296875 67.796875 60.796875 67.796875 
C 58.40625 67.796875 54.296875 67.796875 52 68 
L 52 65.390625 
C 57 65.09375 57.203125 61.59375 57.203125 60.984375 
C 57.203125 59.890625 56.90625 59.1875 56.59375 58.390625 
L 36.90625 7 
L 16.296875 60.984375 
C 16 61.6875 15.796875 62.1875 15.796875 62.6875 
C 15.796875 65.390625 19.796875 65.390625 21.90625 65.390625 
L 21.90625 68 
C 18.703125 67.796875 14 67.796875 10.703125 67.796875 
C 8.09375 67.796875 3.40625 67.796875 1 68 
L 1 65.390625 
C 6.796875 65.390625 7.90625 65 9.09375 61.796875 
L 32.90625 -0.40625 
C 33.40625 -1.8125 33.5 -2 34.59375 -2 
C 35.703125 -2 35.796875 -1.8125 36.296875 -0.40625 
z
" id="CMR17-86"/>
      <path d="M 15.296875 69 
L 3.40625 67.890625 
L 3.40625 65.296875 
C 9.296875 65.296875 10.203125 64.703125 10.203125 59.921875 
L 10.203125 6.859375 
C 10.203125 3.09375 9.796875 2.59375 3.40625 2.59375 
L 3.40625 0 
C 5.796875 0.1875 10.203125 0.1875 12.703125 0.1875 
C 15.296875 0.1875 19.703125 0.1875 22.09375 0 
L 22.09375 2.59375 
C 15.703125 2.59375 15.296875 2.984375 15.296875 6.859375 
z
" id="CMR17-108"/>
      <path d="M 29.203125 67.890625 
L 29.203125 65.296875 
C 35.09375 65.296875 36 64.703125 36 60.046875 
L 36 37.046875 
C 35.59375 37.546875 31.5 44 23.40625 44 
C 13.203125 44 3.296875 34.8125 3.296875 21.5 
C 3.296875 8.265625 12.59375 -1 22.40625 -1 
C 30.90625 -1 35.296875 5.640625 35.796875 6.34375 
L 35.796875 -1 
L 47.90625 -0.203125 
L 47.90625 2.40625 
C 42 2.40625 41.09375 3.015625 41.09375 7.859375 
L 41.09375 69 
z
M 35.796875 11.90625 
C 35.796875 8.875 34 6.140625 31.703125 4.125 
C 28.296875 1.09375 24.90625 0.59375 23 0.59375 
C 20.09375 0.59375 9.703125 2.109375 9.703125 21.390625 
C 9.703125 41.1875 21.296875 42.390625 23.90625 42.390625 
C 28.5 42.390625 32.203125 39.765625 34.5 36.140625 
C 35.796875 34.015625 35.796875 33.703125 35.796875 31.890625 
z
" id="CMR17-100"/>
      <path d="M 39.203125 33.6875 
C 48.703125 35.59375 56.703125 42.015625 56.703125 50.046875 
C 56.703125 59.46875 46.09375 68 32.09375 68 
L 5.203125 68 
L 5.203125 65.390625 
C 12.09375 65.390625 13.203125 65.390625 13.203125 60.875 
L 13.203125 6.6875 
C 13.203125 2.1875 12.09375 2.1875 5.203125 2.1875 
L 5.203125 -0.40625 
C 8.09375 -0.203125 13.296875 -0.203125 16.40625 -0.203125 
C 19.5 -0.203125 24.703125 -0.203125 27.59375 -0.40625 
L 27.59375 2.1875 
C 20.703125 2.1875 19.59375 2.1875 19.59375 6.6875 
L 19.59375 33 
L 31.296875 33 
C 37 33 40.203125 30.6875 41.59375 29.390625 
C 45.59375 25.5 45.59375 22.796875 45.59375 16 
C 45.59375 9.296875 45.59375 5.890625 48.59375 2.5 
C 52.40625 -1.609375 57.5 -2 59.703125 -2 
C 67.09375 -2 68.203125 6.296875 68.203125 8 
C 68.203125 8.59375 68.203125 9.296875 67.296875 9.296875 
C 66.5 9.296875 66.40625 8.6875 66.40625 8.296875 
C 65.90625 1.796875 63 -0.40625 59.90625 -0.40625 
C 54.40625 -0.40625 53.796875 5.890625 53.203125 12 
C 52.90625 14.09375 52.703125 15.59375 52.5 17.796875 
C 51.90625 22.796875 51.09375 30.09375 39.203125 33.6875 
z
M 31 34.59375 
L 19.59375 34.59375 
L 19.59375 61.484375 
C 19.59375 64.890625 19.796875 65.390625 23.796875 65.390625 
L 31.09375 65.390625 
C 39.40625 65.390625 49.09375 62.484375 49.09375 50.046875 
C 49.09375 37.09375 38.5 34.59375 31 34.59375 
z
" id="CMR17-82"/>
      <path d="M 6.5 67.71875 
C 8.5 72.203125 12.90625 73.796875 17.09375 73.796875 
C 22.796875 73.796875 30 71 30 64.046875 
C 30 57.09375 23.09375 52.609375 18 49.03125 
C 14.203125 46.359375 10.5 43.375 6.703125 40.6875 
C 5.703125 39.984375 4.5 39.5 4.5 38.1875 
L 4.5 35 
L 33.203125 35 
L 35.296875 49.03125 
L 34 49.03125 
C 33.09375 44.859375 33.59375 39.59375 29.90625 39.59375 
C 27.796875 39.5 25.703125 39.296875 23.59375 39.296875 
C 22.09375 39.296875 20.703125 39.390625 19.203125 39.390625 
L 6.703125 39.390625 
C 8.40625 40.6875 10.203125 41.78125 12 42.96875 
C 15.296875 45.265625 18.59375 47.546875 22.09375 49.53125 
C 27.796875 52.8125 35.296875 56.390625 35.296875 64.34375 
C 35.296875 72.5 26.5 76 19.09375 76 
C 12.796875 76 4.5 72.703125 4.5 64.84375 
C 4.5 62.75 5.90625 61.5625 7.703125 61.5625 
C 9.5 61.5625 10.90625 62.859375 10.90625 64.640625 
C 10.90625 66.53125 9.59375 67.828125 7.59375 67.828125 
C 7.203125 67.828125 6.90625 67.828125 6.5 67.71875 
z
" id="Computer_Modern_Roman-178"/>
      <path d="M 43.796875 67.984375 
C 43.796875 69.796875 43.703125 69.890625 43.09375 69.890625 
C 42.5 69.890625 42.296875 69.484375 41.90625 68.59375 
L 38.90625 61.953125 
C 35.09375 67.5 29.296875 70 23 70 
C 12.796875 70 4.59375 61.84375 4.59375 51.578125 
C 4.59375 48.453125 5.296875 44.015625 8.703125 39.78125 
C 12.40625 35.15625 15.90625 34.34375 23.90625 32.234375 
C 26.90625 31.421875 31.90625 30.109375 32.90625 29.703125 
C 38.59375 27.296875 41.59375 21.25 41.59375 15.609375 
C 41.59375 8.34375 36.5 0.59375 27.796875 0.59375 
C 17.09375 0.59375 7.09375 6.640625 6.40625 20.75 
C 6.296875 22.359375 6.203125 22.453125 5.5 22.453125 
C 4.703125 22.453125 4.59375 22.359375 4.59375 20.34375 
L 4.59375 0 
C 4.59375 -1.8125 4.703125 -1.90625 5.296875 -1.90625 
C 6 -1.90625 6.203125 -1.40625 7.59375 1.703125 
C 7.703125 2 7.703125 2.203125 9.59375 6.03125 
C 14.59375 -0.609375 23 -2 27.796875 -2 
C 38.703125 -2 46.40625 7.140625 46.40625 17.828125 
C 46.40625 23.0625 44.5 27.09375 43.40625 28.90625 
C 39.203125 35.359375 34.703125 36.5625 29.90625 37.765625 
C 29.203125 38.078125 29 38.078125 23.40625 39.484375 
C 18 40.890625 15.703125 41.59375 13.203125 44.3125 
C 10.40625 47.4375 9.40625 50.671875 9.40625 53.890625 
C 9.40625 60.4375 14.59375 67.59375 23.09375 67.59375 
C 33.703125 67.59375 40.296875 60.03125 41.796875 47.4375 
C 42.09375 45.625 42.203125 45.53125 42.90625 45.53125 
C 43.796875 45.53125 43.796875 45.828125 43.796875 47.546875 
z
" id="CMR17-83"/>
      <path d="M 34.90625 35 
C 33 35 30.203125 35 30.203125 31.484375 
C 30.203125 28.6875 32.5 27.890625 33.796875 27.890625 
C 34.5 27.890625 37.40625 28.1875 37.40625 31.6875 
C 37.40625 38.6875 30.59375 44 22.90625 44 
C 12.296875 44 3.296875 34.390625 3.296875 21.546875 
C 3.296875 8.140625 12.703125 -1 22.90625 -1 
C 35.296875 -1 38.40625 10.5625 38.40625 11.671875 
C 38.40625 12.078125 38.296875 12.375 37.59375 12.375 
C 36.90625 12.375 36.796875 12.28125 36.40625 10.96875 
C 33.796875 2.8125 28.09375 0.796875 23.796875 0.796875 
C 17.40625 0.796875 9.703125 6.734375 9.703125 21.640625 
C 9.703125 36.84375 17.09375 42.1875 23 42.1875 
C 26.90625 42.1875 32.703125 40.34375 34.90625 35 
z
" id="CMR17-99"/>
     </defs>
     <g transform="translate(42.290645 314.930907)rotate(-90)scale(0.2 -0.2)">
      <use transform="scale(0.996264)" xlink:href="#CMR17-66"/>
      <use transform="translate(65.188754 0)scale(0.996264)" xlink:href="#CMR17-101"/>
      <use transform="translate(105.674415 0)scale(0.996264)" xlink:href="#CMR17-115"/>
      <use transform="translate(141.475753 0)scale(0.996264)" xlink:href="#CMR17-116"/>
      <use transform="translate(206.832487 0)scale(0.996264)" xlink:href="#CMR17-86"/>
      <use transform="translate(268.097661 0)scale(0.996264)" xlink:href="#CMR17-97"/>
      <use transform="translate(313.788138 0)scale(0.996264)" xlink:href="#CMR17-108"/>
      <use transform="translate(338.659197 0)scale(0.996264)" xlink:href="#CMR17-105"/>
      <use transform="translate(363.530255 0)scale(0.996264)" xlink:href="#CMR17-100"/>
      <use transform="translate(414.425625 0)scale(0.996264)" xlink:href="#CMR17-97"/>
      <use transform="translate(460.116102 0)scale(0.996264)" xlink:href="#CMR17-116"/>
      <use transform="translate(495.39687 0)scale(0.996264)" xlink:href="#CMR17-105"/>
      <use transform="translate(520.267928 0)scale(0.996264)" xlink:href="#CMR17-111"/>
      <use transform="translate(565.958405 0)scale(0.996264)" xlink:href="#CMR17-110"/>
      <use transform="translate(646.929742 0)scale(0.996264)" xlink:href="#CMR17-82"/>
      <use transform="translate(714.720844 0)scale(0.356961)" xlink:href="#Computer_Modern_Roman-178"/>
      <use transform="translate(758.992082 0)scale(0.996264)" xlink:href="#CMR17-83"/>
      <use transform="translate(809.887452 0)scale(0.996264)" xlink:href="#CMR17-99"/>
      <use transform="translate(850.373113 0)scale(0.996264)" xlink:href="#CMR17-111"/>
      <use transform="translate(896.06359 0)scale(0.996264)" xlink:href="#CMR17-114"/>
      <use transform="translate(931.344357 0)scale(0.996264)" xlink:href="#CMR17-101"/>
     </g>
    </g>
   </g>
   <g id="line2d_16">
    <path clip-path="url(#p90783bf11d)" d="M 90 317.54551 
L 117.9 317.54551 
L 145.8 317.54551 
L 173.7 281.993743 
L 201.6 281.993743 
L 229.5 281.993743 
L 257.4 281.993743 
L 285.3 281.993743 
L 313.2 281.993743 
L 341.1 281.993743 
L 369 281.993743 
L 396.9 150.274339 
L 424.8 150.274339 
L 452.7 150.26876 
L 480.6 150.26876 
L 508.5 150.26876 
L 536.4 150.26876 
L 564.3 150.26876 
L 592.2 150.26876 
L 620.1 150.26876 
L 648 150.26876 
L 675.9 150.26876 
L 703.8 150.26876 
L 721 150.26876 
" style="fill:none;stroke:#d62728;stroke-linecap:square;stroke-width:3;"/>
   </g>
   <g id="line2d_17">
    <path clip-path="url(#p90783bf11d)" d="M 90 152.738227 
L 117.9 152.738227 
L 145.8 152.738227 
L 173.7 152.738227 
L 201.6 152.738227 
L 229.5 152.738227 
L 257.4 150.798603 
L 285.3 150.798603 
L 313.2 150.798603 
L 341.1 150.798603 
L 369 150.798603 
L 396.9 150.798603 
L 424.8 150.798603 
L 452.7 150.317764 
L 480.6 150.317764 
L 508.5 150.317764 
L 536.4 150.317764 
L 564.3 150.317764 
L 592.2 150.317764 
L 620.1 150.317764 
L 648 150.317764 
L 675.9 150.317764 
L 703.8 150.317764 
L 721 150.317764 
" style="fill:none;stroke:#1f77b4;stroke-dasharray:11.1,4.8;stroke-dashoffset:0;stroke-width:3;"/>
   </g>
   <g id="line2d_18">
    <path clip-path="url(#p90783bf11d)" d="M 90 109.225248 
L 117.9 109.225248 
L 145.8 109.225248 
L 173.7 109.225248 
L 201.6 109.225248 
L 229.5 109.225248 
L 257.4 105.242449 
L 285.3 105.242449 
L 313.2 105.242449 
L 341.1 105.242449 
L 369 105.242449 
L 396.9 105.242449 
L 424.8 105.242449 
L 452.7 105.242449 
L 480.6 105.242449 
L 508.5 105.242449 
L 536.4 105.242449 
L 564.3 105.242449 
L 592.2 105.242449 
L 620.1 105.242449 
L 648 105.242449 
L 675.9 105.242449 
L 703.8 105.242449 
L 721 105.242449 
" style="fill:none;stroke:#2ca02c;stroke-dasharray:3,4.95;stroke-dashoffset:0;stroke-width:3;"/>
   </g>
   <g id="line2d_19">
    <path clip-path="url(#p90783bf11d)" d="M 90 309.81752 
L 117.9 309.81752 
L 145.8 309.81752 
L 173.7 129.504072 
L 201.6 129.504072 
L 229.5 129.504072 
L 257.4 129.504072 
L 285.3 129.504072 
L 313.2 129.504072 
L 341.1 129.504072 
L 369 112.538452 
L 396.9 112.538452 
L 424.8 112.538452 
L 452.7 112.538452 
L 480.6 112.538452 
L 508.5 112.538452 
L 536.4 112.538452 
L 564.3 112.538452 
L 592.2 112.319549 
L 620.1 112.319549 
L 648 112.319549 
L 675.9 112.319549 
L 703.8 112.319549 
L 721 112.319549 
" style="fill:none;stroke:#9467bd;stroke-dasharray:19.2,4.8,3,4.8;stroke-dashoffset:0;stroke-width:3;"/>
   </g>
   <g id="patch_3">
    <path d="M 90 378 
L 90 51.84 
" style="fill:none;stroke:#000000;stroke-linecap:square;stroke-linejoin:miter;stroke-width:0.8;"/>
   </g>
   <g id="patch_4">
    <path d="M 648 378 
L 648 51.84 
" style="fill:none;stroke:#000000;stroke-linecap:square;stroke-linejoin:miter;stroke-width:0.8;"/>
   </g>
   <g id="patch_5">
    <path d="M 90 378 
L 648 378 
" style="fill:none;stroke:#000000;stroke-linecap:square;stroke-linejoin:miter;stroke-width:0.8;"/>
   </g>
   <g id="patch_6">
    <path d="M 90 51.84 
L 648 51.84 
" style="fill:none;stroke:#000000;stroke-linecap:square;stroke-linejoin:miter;stroke-width:0.8;"/>
   </g>
   <g id="legend_1">
    <g id="line2d_20">
     <path d="M 432.8 226.573466 
L 472.8 226.573466 
" style="fill:none;stroke:#d62728;stroke-linecap:square;stroke-width:3;"/>
    </g>
    <g id="line2d_21"/>
    <g id="text_18">
     <!-- Polynomial Ridge -->
     <defs>
      <path d="M 19.796875 32 
L 35.796875 32 
C 48.703125 32 58.09375 40.359375 58.09375 49.796875 
C 58.09375 59.234375 48.90625 68 35.796875 68 
L 5.203125 68 
L 5.203125 65.390625 
C 12.09375 65.390625 13.203125 65.390625 13.203125 60.921875 
L 13.203125 7.078125 
C 13.203125 2.59375 12.09375 2.59375 5.203125 2.59375 
L 5.203125 0 
C 8.09375 0.1875 13.40625 0.1875 16.5 0.1875 
C 19.59375 0.1875 24.90625 0.1875 27.796875 0 
L 27.796875 2.59375 
C 20.90625 2.59375 19.796875 2.59375 19.796875 7.078125 
z
M 19.59375 34.09375 
L 19.59375 61.515625 
C 19.59375 64.890625 19.796875 65.390625 23.796875 65.390625 
L 33.90625 65.390625 
C 46.796875 65.390625 50.5 58.046875 50.5 49.796875 
C 50.5 40.75 46.09375 34.09375 33.90625 34.09375 
z
" id="CMR17-80"/>
     </defs>
     <g transform="translate(488.8 233.573466)scale(0.2 -0.2)">
      <use transform="scale(0.996264)" xlink:href="#CMR17-80"/>
      <use transform="translate(59.983847 0)scale(0.996264)" xlink:href="#CMR17-111"/>
      <use transform="translate(105.674324 0)scale(0.996264)" xlink:href="#CMR17-108"/>
      <use transform="translate(130.545382 0)scale(0.996264)" xlink:href="#CMR17-121"/>
      <use transform="translate(178.838298 0)scale(0.996264)" xlink:href="#CMR17-110"/>
      <use transform="translate(229.733668 0)scale(0.996264)" xlink:href="#CMR17-111"/>
      <use transform="translate(275.424145 0)scale(0.996264)" xlink:href="#CMR17-109"/>
      <use transform="translate(352.343735 0)scale(0.996264)" xlink:href="#CMR17-105"/>
      <use transform="translate(377.214793 0)scale(0.996264)" xlink:href="#CMR17-97"/>
      <use transform="translate(422.90527 0)scale(0.996264)" xlink:href="#CMR17-108"/>
      <use transform="translate(477.852295 0)scale(0.996264)" xlink:href="#CMR17-82"/>
      <use transform="translate(545.643397 0)scale(0.996264)" xlink:href="#CMR17-105"/>
      <use transform="translate(570.514456 0)scale(0.996264)" xlink:href="#CMR17-100"/>
      <use transform="translate(621.409825 0)scale(0.996264)" xlink:href="#CMR17-103"/>
      <use transform="translate(667.100303 0)scale(0.996264)" xlink:href="#CMR17-101"/>
     </g>
    </g>
    <g id="line2d_22">
     <path d="M 432.8 254.449099 
L 472.8 254.449099 
" style="fill:none;stroke:#1f77b4;stroke-dasharray:11.1,4.8;stroke-dashoffset:0;stroke-width:3;"/>
    </g>
    <g id="line2d_23"/>
    <g id="text_19">
     <!-- Decision Tree -->
     <defs>
      <path d="M 5.203125 68 
L 5.203125 65.390625 
C 12.09375 65.390625 13.203125 65.390625 13.203125 60.90625 
L 13.203125 7.078125 
C 13.203125 2.59375 12.09375 2.59375 5.203125 2.59375 
L 5.203125 0 
L 37 0 
C 53.09375 0 66 14.734375 66 33.4375 
C 66 52.25 53.296875 68 37 68 
z
M 23.796875 2.59375 
C 19.796875 2.59375 19.59375 3.09375 19.59375 6.46875 
L 19.59375 61.5 
C 19.59375 64.890625 19.796875 65.390625 23.796875 65.390625 
L 35 65.390625 
C 43.296875 65.390625 58.59375 60.515625 58.59375 33.4375 
C 58.59375 19.40625 54.5 13.734375 52.59375 11.046875 
C 50.203125 7.96875 44.5 2.59375 35 2.59375 
z
" id="CMR17-68"/>
     </defs>
     <g transform="translate(488.8 261.449099)scale(0.2 -0.2)">
      <use transform="scale(0.996264)" xlink:href="#CMR17-68"/>
      <use transform="translate(70.393556 0)scale(0.996264)" xlink:href="#CMR17-101"/>
      <use transform="translate(110.879216 0)scale(0.996264)" xlink:href="#CMR17-99"/>
      <use transform="translate(151.364877 0)scale(0.996264)" xlink:href="#CMR17-105"/>
      <use transform="translate(176.235935 0)scale(0.996264)" xlink:href="#CMR17-115"/>
      <use transform="translate(212.037273 0)scale(0.996264)" xlink:href="#CMR17-105"/>
      <use transform="translate(236.908331 0)scale(0.996264)" xlink:href="#CMR17-111"/>
      <use transform="translate(282.598809 0)scale(0.996264)" xlink:href="#CMR17-110"/>
      <use transform="translate(363.570145 0)scale(0.996264)" xlink:href="#CMR17-84"/>
      <use transform="translate(422.27277 0)scale(0.996264)" xlink:href="#CMR17-114"/>
      <use transform="translate(457.553538 0)scale(0.996264)" xlink:href="#CMR17-101"/>
      <use transform="translate(498.039198 0)scale(0.996264)" xlink:href="#CMR17-101"/>
     </g>
    </g>
    <g id="line2d_24">
     <path d="M 432.8 282.324733 
L 472.8 282.324733 
" style="fill:none;stroke:#2ca02c;stroke-dasharray:3,4.95;stroke-dashoffset:0;stroke-width:3;"/>
    </g>
    <g id="line2d_25"/>
    <g id="text_20">
     <!-- Random Forest -->
     <defs>
      <path d="M 54.40625 67.796875 
L 5.09375 67.796875 
L 5.09375 65.1875 
C 12 65.1875 13.09375 65.1875 13.09375 60.671875 
L 13.09375 7.03125 
C 13.09375 2.59375 12 2.59375 5.09375 2.59375 
L 5.09375 0 
C 8 0.1875 13.59375 0.1875 16.703125 0.1875 
C 20.796875 0.1875 25.59375 0.1875 29.703125 0 
L 29.703125 2.59375 
L 27.5 2.59375 
C 19.90625 2.59375 19.703125 3.578125 19.703125 7.125 
L 19.703125 32.390625 
L 28.703125 32.390625 
C 38 32.390625 38.90625 29.140625 38.90625 20.84375 
L 40.703125 20.84375 
L 40.703125 46.734375 
L 38.90625 46.734375 
C 38.90625 38.296875 38 35 28.703125 35 
L 19.703125 35 
L 19.703125 61.28125 
C 19.703125 64.6875 19.90625 65.1875 23.90625 65.1875 
L 36.796875 65.1875 
C 51.90625 65.1875 53.59375 58.96875 55 45.625 
L 56.796875 45.625 
z
" id="CMR17-70"/>
     </defs>
     <g transform="translate(488.8 289.324733)scale(0.2 -0.2)">
      <use transform="scale(0.996264)" xlink:href="#CMR17-82"/>
      <use transform="translate(67.791102 0)scale(0.996264)" xlink:href="#CMR17-97"/>
      <use transform="translate(113.481579 0)scale(0.996264)" xlink:href="#CMR17-110"/>
      <use transform="translate(164.376949 0)scale(0.996264)" xlink:href="#CMR17-100"/>
      <use transform="translate(215.272319 0)scale(0.996264)" xlink:href="#CMR17-111"/>
      <use transform="translate(260.962796 0)scale(0.996264)" xlink:href="#CMR17-109"/>
      <use transform="translate(367.958352 0)scale(0.996264)" xlink:href="#CMR17-70"/>
      <use transform="translate(420.134943 0)scale(0.996264)" xlink:href="#CMR17-111"/>
      <use transform="translate(465.82542 0)scale(0.996264)" xlink:href="#CMR17-114"/>
      <use transform="translate(501.106188 0)scale(0.996264)" xlink:href="#CMR17-101"/>
      <use transform="translate(541.591849 0)scale(0.996264)" xlink:href="#CMR17-115"/>
      <use transform="translate(577.393186 0)scale(0.996264)" xlink:href="#CMR17-116"/>
     </g>
    </g>
    <g id="line2d_26">
     <path d="M 432.8 310.200366 
L 472.8 310.200366 
" style="fill:none;stroke:#9467bd;stroke-dasharray:19.2,4.8,3,4.8;stroke-dashoffset:0;stroke-width:3;"/>
    </g>
    <g id="line2d_27"/>
    <g id="text_21">
     <!-- XGBoost -->
     <defs>
      <path d="M 36.5 37.71875 
L 51.296875 58.921875 
C 52.796875 61.015625 55.796875 65.28125 64 65.390625 
L 64 68 
C 61.703125 67.796875 57.90625 67.796875 55.5 67.796875 
C 52.203125 67.796875 48.09375 67.796875 45.59375 68 
L 45.59375 65.390625 
C 48.796875 65.09375 49.59375 63.09375 49.59375 61.5 
C 49.59375 60.3125 49.09375 59.515625 48.40625 58.515625 
L 35.203125 39.515625 
L 20.40625 61.015625 
C 19.703125 62.109375 19.59375 62.40625 19.59375 62.703125 
C 19.59375 63.59375 20.703125 65.28125 24 65.390625 
L 24 68 
C 20.796875 67.796875 15.90625 67.796875 12.59375 67.796875 
C 10 67.796875 5 67.796875 2.59375 68 
L 2.59375 65.390625 
C 8.09375 65.390625 9.90625 65.1875 12.09375 62.109375 
L 31.40625 34.046875 
L 14 8.859375 
C 9.703125 2.6875 3.203125 2.59375 1.296875 2.59375 
L 1.296875 0 
C 3.59375 0.1875 7.40625 0.1875 9.796875 0.1875 
C 12.5 0.1875 17.203125 0.1875 19.703125 0 
L 19.703125 2.59375 
C 16.59375 2.890625 15.703125 4.875 15.703125 6.46875 
C 15.703125 7.765625 16.203125 8.46875 16.703125 9.15625 
L 32.703125 32.25 
L 50.09375 6.96875 
C 50.90625 5.875 50.90625 5.578125 50.90625 5.28125 
C 50.90625 4.484375 50 2.796875 46.5 2.59375 
L 46.5 0 
C 49.703125 0.1875 54.59375 0.1875 57.90625 0.1875 
C 60.5 0.1875 65.5 0.1875 67.90625 0 
L 67.90625 2.59375 
C 61.5 2.59375 60.5 3.09375 58.5 5.875 
z
" id="CMR17-88"/>
      <path d="M 62.09375 19.65625 
C 62.09375 23.484375 62.40625 24 68.59375 24 
L 68.59375 26.59375 
C 66.203125 26.390625 60.796875 26.390625 58.09375 26.390625 
C 55.296875 26.390625 47.5 26.5 43.703125 26.59375 
L 43.703125 24 
L 46.703125 24 
C 55.296875 24 55.5 22.875 55.5 19.25 
L 55.5 12.59375 
C 55.5 1.5 42.5 0.59375 39.40625 0.59375 
C 29.09375 0.59375 12.203125 7.75 12.203125 34.046875 
C 12.203125 60.34375 28.796875 67.390625 38.5 67.390625 
C 49.796875 67.390625 58 57.515625 59.90625 43.515625 
C 60.09375 42.3125 60.09375 42.109375 61 42.109375 
C 62.09375 42.109375 62.09375 42.3125 62.09375 44.125 
L 62.09375 67.984375 
C 62.09375 69.796875 62 69.890625 61.40625 69.890625 
C 61 69.890625 60.90625 69.796875 60.203125 68.59375 
L 55.796875 60.140625 
C 50.90625 66.390625 44.90625 70 37.203125 70 
C 20.09375 70 4.59375 54.796875 4.59375 34.046875 
C 4.59375 13.40625 19.796875 -2 37.40625 -2 
C 45.5 -2 53.40625 0.890625 56.5 6.640625 
C 58.203125 2.515625 61 -0.3125 61.5 -0.3125 
C 62 -0.3125 62.09375 -0.203125 62.09375 1.59375 
z
" id="CMR17-71"/>
     </defs>
     <g transform="translate(488.8 317.200366)scale(0.2 -0.2)">
      <use transform="scale(0.996264)" xlink:href="#CMR17-88"/>
      <use transform="translate(66.469976 0)scale(0.996264)" xlink:href="#CMR17-71"/>
      <use transform="translate(138.825322 0)scale(0.996264)" xlink:href="#CMR17-66"/>
      <use transform="translate(204.014076 0)scale(0.996264)" xlink:href="#CMR17-111"/>
      <use transform="translate(252.306992 0)scale(0.996264)" xlink:href="#CMR17-111"/>
      <use transform="translate(297.997469 0)scale(0.996264)" xlink:href="#CMR17-115"/>
      <use transform="translate(333.798807 0)scale(0.996264)" xlink:href="#CMR17-116"/>
     </g>
    </g>
   </g>
  </g>
 </g>
 <defs>
  <clipPath id="p90783bf11d">
   <rect height="326.16" width="558" x="90" y="51.84"/>
  </clipPath>
 </defs>
</svg>
